<svg xmlns="http://www.w3.org/2000/svg" width="45" height="45">
    <path fill="#1DA1F2" fill-rule="evenodd" d="M22.715.887C10.571.887.691 10.779.691 22.939s9.88 22.053 22.024 22.053c12.145 0 22.025-9.893 22.025-22.053S34.86.887 22.715.887zm9.826 17.005c.01.219.015.439.015.659 0 6.708-5.099 14.441-14.425 14.441-2.862 0-5.527-.839-7.77-2.28.396.047.8.071 1.209.071 2.376 0 4.561-.812 6.296-2.173a5.076 5.076 0 0 1-4.736-3.525 5.073 5.073 0 0 0 2.289-.087 5.076 5.076 0 0 1-4.066-4.976l.001-.064c.683.38 1.465.609 2.295.634a5.072 5.072 0 0 1-2.254-4.223c0-.931.249-1.803.686-2.553a14.393 14.393 0 0 0 10.448 5.305 5.081 5.081 0 0 1-.13-1.158 5.073 5.073 0 0 1 5.069-5.076c1.458 0 2.775.617 3.699 1.603a10.109 10.109 0 0 0 3.221-1.232 5.096 5.096 0 0 1-2.231 2.809 10.095 10.095 0 0 0 2.912-.799 10.257 10.257 0 0 1-2.528 2.624z"/>
</svg>
