<svg xmlns="http://www.w3.org/2000/svg" width="45" height="45">
    <path fill="#F00" fill-rule="evenodd" d="M22.403 44.999c-12.167 0-22.03-9.876-22.03-22.059C.373 10.758 10.236.883 22.403.883c12.166 0 22.029 9.875 22.029 22.057 0 12.183-9.863 22.059-22.029 22.059zm15.016-29.421c-.381-1.657-1.734-2.878-3.363-3.06-3.857-.432-7.761-.434-11.648-.432-3.887-.002-7.792 0-11.65.432-1.628.182-2.98 1.404-3.361 3.06-.542 2.359-.548 4.934-.548 7.362 0 2.43 0 5.004.542 7.364.38 1.656 1.733 2.878 3.361 3.06 3.858.432 7.762.433 11.65.432 3.887.001 7.791 0 11.647-.432 1.629-.182 2.982-1.404 3.363-3.06.543-2.36.544-4.935.544-7.364 0-2.427.005-5.003-.537-7.362zm-19.031 1.897l9.89 5.166-9.89 5.134v-10.3z"/>
</svg>
